<?xml version="1.0" encoding="UTF-8" standalone="no"?><!DOCTYPE svg PUBLIC "-//W3C//DTD SVG 1.1//EN" "http://www.w3.org/Graphics/SVG/1.1/DTD/svg11.dtd"><svg width="100%" height="100%" viewBox="0 0 16 16" version="1.1" xmlns="http://www.w3.org/2000/svg" xmlns:xlink="http://www.w3.org/1999/xlink" xml:space="preserve" xmlns:serif="http://www.serif.com/" style="fill-rule:evenodd;clip-rule:evenodd;stroke-linejoin:round;stroke-miterlimit:1.41421;"><path d="M7.902,0c-0.174,0 -0.341,0.068 -0.466,0.19l-7.272,5.948c-0.009,0.007 -0.017,0.013 -0.025,0.019l-0.025,0.022l0,0.001c-0.135,0.125 -0.212,0.302 -0.212,0.487c0,0.366 0.301,0.666 0.667,0.666l0.666,0l0,7.334c0,0.736 0.597,1.333 1.334,1.333l10.666,0c0.737,0 1.334,-0.597 1.334,-1.333l0,-7.334l0.666,0c0.366,0 0.667,-0.3 0.667,-0.666c0,-0.186 -0.077,-0.362 -0.212,-0.488l-0.011,-0.008c-0.014,-0.014 -0.03,-0.026 -0.045,-0.038l-1.065,-0.871l0,-2.595c0,-0.368 -0.299,-0.667 -0.667,-0.667l-0.667,0c-0.368,0 -0.666,0.299 -0.666,0.667l0,0.959l-4.215,-3.447c-0.123,-0.115 -0.285,-0.178 -0.452,-0.179Zm2,8.667l2.667,0l0,5.333l-2.667,0l0,-5.333Z" style="fill-rule:nonzero;"/></svg>