<?xml version="1.0" encoding="UTF-8" standalone="no"?>
<!DOCTYPE svg PUBLIC "-//W3C//DTD SVG 1.1//EN" "http://www.w3.org/Graphics/SVG/1.1/DTD/svg11.dtd">
<svg width="100%" height="100%" viewBox="0 0 38 46" version="1.1" xmlns="http://www.w3.org/2000/svg" xmlns:xlink="http://www.w3.org/1999/xlink" xml:space="preserve" xmlns:serif="http://www.serif.com/" style="fill-rule:evenodd;clip-rule:evenodd;stroke-linejoin:round;stroke-miterlimit:1.41421;">
    <g transform="matrix(1,0,0,1,-5.02148,-2)">
        <path id="surface1" d="M21,2C16.594,2 13,5.594 13,10C13,12.953 14.609,15.523 17,16.906L17,32.344L11.844,27.156C10.289,25.602 7.742,25.602 6.188,27.156C4.633,28.711 4.633,31.258 6.188,32.813L17.531,44.188C19.969,46.625 23.273,48 26.719,48L34,48C38.957,48 43,43.957 43,39L43,26C43,23.801 41.199,22 39,22C38.168,22 37.395,22.246 36.75,22.688C36.203,21.129 34.738,20 33,20C32.012,20 31.137,20.398 30.438,21C29.742,19.816 28.465,19 27,19C26.266,19 25.594,19.215 25,19.563L25,16.906C27.391,15.523 29,12.953 29,10C29,5.594 25.406,2 21,2ZM21,4C24.324,4 27,6.676 27,10C27,11.781 26.23,13.375 25,14.469L25,10C25,7.801 23.199,6 21,6C18.801,6 17,7.801 17,10L17,14.469C15.77,13.375 15,11.785 15,10C15,6.676 17.676,4 21,4ZM21,8C22.117,8 23,8.883 23,10L23,16.188C22.984,16.293 22.984,16.395 23,16.5L23,25C22.992,25.309 23.129,25.602 23.367,25.797C23.602,25.992 23.918,26.066 24.219,26C24.32,25.973 24.414,25.93 24.5,25.875C24.52,25.867 24.543,25.855 24.563,25.844C24.621,25.797 24.672,25.746 24.719,25.688C24.898,25.504 24.996,25.258 25,25L25,23C25,21.883 25.883,21 27,21C28.117,21 29,21.883 29,23L29,25C29.004,25.063 29.016,25.125 29.031,25.188C29.047,25.285 29.078,25.379 29.125,25.469C29.164,25.559 29.219,25.645 29.281,25.719C29.328,25.766 29.383,25.809 29.438,25.844C29.469,25.867 29.5,25.887 29.531,25.906C29.621,25.953 29.715,25.984 29.813,26C29.945,26.027 30.086,26.027 30.219,26C30.32,25.973 30.414,25.93 30.5,25.875C30.52,25.867 30.543,25.855 30.563,25.844C30.621,25.797 30.672,25.746 30.719,25.688C30.898,25.504 30.996,25.258 31,25L31,24C31,22.883 31.883,22 33,22C34.117,22 35,22.883 35,24L35,27C34.996,27.359 35.184,27.695 35.496,27.879C35.809,28.059 36.191,28.059 36.504,27.879C36.816,27.695 37.004,27.359 37,27L37,26.156C37.004,26.105 37.004,26.051 37,26C37,24.883 37.883,24 39,24C40.117,24 41,24.883 41,26L41,39C41,42.879 37.879,46 34,46L26.719,46C23.801,46 21,44.844 18.938,42.781L7.594,31.406C6.805,30.617 6.805,29.383 7.594,28.594C8.383,27.805 9.617,27.805 10.406,28.594L17.156,35.313C17.191,35.367 17.234,35.422 17.281,35.469C17.301,35.492 17.32,35.512 17.344,35.531C17.477,35.645 17.641,35.719 17.813,35.75C17.945,35.777 18.086,35.777 18.219,35.75C18.281,35.734 18.348,35.715 18.406,35.688C18.438,35.668 18.469,35.648 18.5,35.625C18.785,35.461 18.973,35.172 19,34.844L19,34.75C19.004,34.707 19.004,34.668 19,34.625L19,16.438C19.016,16.332 19.016,16.23 19,16.125L19,10C19,8.883 19.883,8 21,8Z" style="fill-rule:nonzero;"/>
    </g>
</svg>
