<?xml version="1.0" encoding="UTF-8" standalone="no"?><!DOCTYPE svg PUBLIC "-//W3C//DTD SVG 1.1//EN" "http://www.w3.org/Graphics/SVG/1.1/DTD/svg11.dtd"><svg width="100%" height="100%" viewBox="0 0 42 42" version="1.1" xmlns="http://www.w3.org/2000/svg" xmlns:xlink="http://www.w3.org/1999/xlink" xml:space="preserve" xmlns:serif="http://www.serif.com/" style="fill-rule:evenodd;clip-rule:evenodd;stroke-linejoin:round;stroke-miterlimit:1.41421;"><path d="M7,0c-3.898,0 -7,3.102 -7,7l0,28c0,3.898 3.102,7 7,7l28,0c3.898,0 7,-3.102 7,-7l0,-24.507l-2,3.212l0,21.295c0,2.801 -2.199,5 -5,5l-28,0c-2.801,0 -5,-2.199 -5,-5l0,-28c0,-2.801 2.199,-5 5,-5l26.618,0l1.382,-2l-28,0Z"/><path id="surface1" d="M39.834,0.253c-0.579,0.02 -1.11,0.326 -1.416,0.817l-16.39,25.075l-8.236,-7.113c-0.456,-0.473 -1.14,-0.65 -1.769,-0.453c-0.627,0.194 -1.093,0.725 -1.202,1.372c-0.109,0.65 0.153,1.303 0.684,1.695l9.76,8.447c0.381,0.323 0.885,0.466 1.379,0.395c0.496,-0.075 0.936,-0.357 1.208,-0.776l17.506,-26.737c0.375,-0.548 0.405,-1.255 0.082,-1.834c-0.323,-0.575 -0.946,-0.919 -1.606,-0.888Z" style="fill-rule:nonzero;"/></svg>