<?xml version="1.0" encoding="UTF-8" standalone="no"?><!DOCTYPE svg PUBLIC "-//W3C//DTD SVG 1.1//EN" "http://www.w3.org/Graphics/SVG/1.1/DTD/svg11.dtd"><svg width="100%" height="100%" viewBox="0 0 42 42" version="1.1" xmlns="http://www.w3.org/2000/svg" xmlns:xlink="http://www.w3.org/1999/xlink" xml:space="preserve" xmlns:serif="http://www.serif.com/" style="fill-rule:evenodd;clip-rule:evenodd;stroke-linejoin:round;stroke-miterlimit:1.41421;"><path id="surface1" d="M7,0c-3.844,0 -7,3.156 -7,7l0,28c0,3.844 3.156,7 7,7l28,0c3.844,0 7,-3.156 7,-7l0,-28c0,-3.844 -3.156,-7 -7,-7l-28,0Zm0,2l28,0c2.754,0 5,2.246 5,5l0,28c0,2.754 -2.246,5 -5,5l-28,0c-2.754,0 -5,-2.246 -5,-5l0,-28c0,-2.754 2.246,-5 5,-5Zm1,16l0,6l26,0l0,-6l-26,0Zm2,2l22,0l0,2l-22,0l0,-2Z" style="fill-rule:nonzero;"/></svg>