<?xml version="1.0" encoding="UTF-8" standalone="no"?>
<!DOCTYPE svg PUBLIC "-//W3C//DTD SVG 1.1//EN" "http://www.w3.org/Graphics/SVG/1.1/DTD/svg11.dtd">
<svg width="100%" height="100%" viewBox="0 0 31 47" version="1.1" xmlns="http://www.w3.org/2000/svg" xmlns:xlink="http://www.w3.org/1999/xlink" xml:space="preserve" xmlns:serif="http://www.serif.com/" style="fill-rule:evenodd;clip-rule:evenodd;stroke-linejoin:round;stroke-miterlimit:1.41421;">
    <g transform="matrix(1,0,0,1,-9.99997,-1.99997)">
        <path id="surface1" d="M10.906,2C10.391,2.047 9.996,2.48 10,3L10,47C10,47.551 10.449,48 11,48L39,48C39.551,48 40,47.551 40,47L40,3C40,2.969 40,2.938 40,2.906C39.953,2.391 39.52,1.996 39,2L11,2C10.969,2 10.938,2 10.906,2ZM12,4L38,4L38,46L12,46L12,4ZM34.5,24C33.672,24 33,24.672 33,25.5C33,26.328 33.672,27 34.5,27C35.328,27 36,26.328 36,25.5C36,24.672 35.328,24 34.5,24Z" style="fill-rule:nonzero;"/>
    </g>
</svg>
