<?xml version="1.0" encoding="UTF-8" standalone="no"?>
<!DOCTYPE svg PUBLIC "-//W3C//DTD SVG 1.1//EN" "http://www.w3.org/Graphics/SVG/1.1/DTD/svg11.dtd">
<svg width="100%" height="100%" viewBox="0 0 38 48" version="1.1" xmlns="http://www.w3.org/2000/svg" xmlns:xlink="http://www.w3.org/1999/xlink" xml:space="preserve" xmlns:serif="http://www.serif.com/" style="fill-rule:evenodd;clip-rule:evenodd;stroke-linejoin:round;stroke-miterlimit:1.41421;">
    <g transform="matrix(1,0,0,1,-6,-2)">
        <path id="surface1" d="M25,2C14.52,2 6,10.52 6,21C6,30.09 12.426,37.703 20.969,39.563C20.879,40.738 20.516,41.441 20.031,41.938C19.469,42.512 18.633,42.859 17.688,43.156C16.742,43.453 15.719,43.668 14.781,44.156C13.844,44.645 13,45.668 13,47L13,49C13,49.551 13.449,50 14,50L36,50C36.551,50 37,49.551 37,49L37,47C37,45.668 36.156,44.645 35.219,44.156C34.281,43.668 33.258,43.453 32.313,43.156C31.367,42.859 30.531,42.512 29.969,41.938C29.484,41.441 29.121,40.738 29.031,39.563C37.57,37.703 44,30.09 44,21C44,10.516 35.473,2 25,2ZM25,4C34.391,4 42,11.598 42,21C42,30.395 34.395,38 25,38C15.602,38 8,30.395 8,21C8,11.602 15.602,4 25,4ZM21,7C18.422,7 16,8.984 16,11.906C16,13.051 16.34,14.02 16.875,14.719C17.41,15.418 18.086,15.871 18.719,16.281C19.859,17.02 20.887,17.582 21.594,18.938C21.344,19.348 21.184,19.793 21.094,20.281C20.07,20.57 18.961,21.016 17.906,21.625C16.605,22.375 15.199,23.59 14.406,25.281C13.613,26.973 13.551,29.176 14.875,31.469C16.164,33.699 19.094,34.805 21.625,33.344C22.613,32.773 23.285,32 23.625,31.188C23.965,30.375 24.023,29.566 24.063,28.813C24.133,27.461 24.102,26.281 24.906,25C24.938,25 24.969,25 25,25C25.469,25 25.926,24.902 26.344,24.75C27.105,25.484 28.051,26.211 29.094,26.813C30.395,27.563 32.137,28.191 34,28.031C35.863,27.871 37.801,26.824 39.125,24.531C40.414,22.301 39.906,19.211 37.375,17.75C36.387,17.18 35.371,16.98 34.5,17.094C33.629,17.207 32.922,17.563 32.25,17.906C31.043,18.523 30.02,19.152 28.5,19.094C28.258,18.652 27.945,18.258 27.563,17.938C27.824,16.91 28,15.738 28,14.531C28,13.031 27.664,11.219 26.594,9.688C25.523,8.156 23.648,7 21,7ZM21,9C23.109,9 24.227,9.781 24.969,10.844C25.711,11.906 26,13.34 26,14.531C26,15.406 25.883,16.313 25.719,17.094C25.48,17.051 25.25,17 25,17C24.293,17 23.641,17.203 23.063,17.531C22.09,16.016 20.754,15.223 19.781,14.594C19.188,14.207 18.754,13.871 18.469,13.5C18.184,13.129 18,12.695 18,11.906C18,10.051 19.398,9 21,9ZM25,19C25.27,19 25.516,19.063 25.75,19.156C25.875,19.266 26.027,19.34 26.188,19.375C26.41,19.535 26.578,19.766 26.719,20C26.719,20.242 26.809,20.477 26.969,20.656C26.984,20.766 27,20.887 27,21C27,21.699 26.656,22.301 26.125,22.656C26.035,22.695 25.949,22.75 25.875,22.813C25.613,22.938 25.313,23 25,23C24.883,23 24.77,22.988 24.656,22.969C24.637,22.969 24.613,22.969 24.594,22.969C24.574,22.965 24.551,22.973 24.531,22.969C24.5,22.957 24.469,22.945 24.438,22.938C23.727,22.734 23.18,22.141 23.031,21.406C23.121,21.176 23.121,20.918 23.031,20.688C23.07,20.438 23.16,20.207 23.281,20C23.484,19.879 23.641,19.691 23.719,19.469C24.066,19.18 24.508,19 25,19ZM35.125,19.063C35.477,19.066 35.863,19.172 36.375,19.469C37.984,20.398 38.207,22.145 37.406,23.531C36.352,25.355 35.105,25.953 33.813,26.063C32.52,26.172 31.125,25.691 30.094,25.094C29.332,24.652 28.625,24.098 28.031,23.563C28.613,22.879 28.984,22.02 29,21.063C30.785,20.977 32.129,20.211 33.156,19.688C33.789,19.363 34.316,19.152 34.781,19.094C34.898,19.078 35.008,19.063 35.125,19.063ZM21.25,22.344C21.566,23.219 22.18,23.934 22.969,24.406C22.137,26.012 22.121,27.555 22.063,28.719C22.027,29.426 21.961,29.973 21.781,30.406C21.602,30.84 21.309,31.199 20.625,31.594C19.016,32.523 17.426,31.855 16.625,30.469C15.57,28.645 15.668,27.301 16.219,26.125C16.77,24.949 17.875,23.973 18.906,23.375C19.66,22.941 20.496,22.594 21.25,22.344ZM22.938,39.875C23.617,39.949 24.301,40 25,40C25.699,40 26.383,39.949 27.063,39.875C27.215,41.387 27.738,42.535 28.531,43.344C29.469,44.301 30.633,44.766 31.688,45.094C32.742,45.422 33.719,45.645 34.281,45.938C34.844,46.23 35,46.332 35,47L35,48L15,48L15,47C15,46.332 15.156,46.23 15.719,45.938C16.281,45.645 17.258,45.422 18.313,45.094C19.367,44.766 20.531,44.301 21.469,43.344C22.262,42.535 22.785,41.387 22.938,39.875Z" style="fill-rule:nonzero;"/>
    </g>
</svg>
