<svg xmlns="http://www.w3.org/2000/svg" xmlns:xlink="http://www.w3.org/1999/xlink" viewBox="0 0 50 50" version="1.1">
<g id="surface1">
<path style=" " d="M 0.90625 -0.03125 C 0.863281 -0.0234375 0.820313 -0.0117188 0.78125 0 C 0.40625 0.0664063 0.105469 0.339844 0 0.703125 C -0.105469 1.070313 0.00390625 1.460938 0.28125 1.71875 L 48.28125 49.71875 C 48.679688 50.117188 49.320313 50.117188 49.71875 49.71875 C 50.117188 49.320313 50.117188 48.679688 49.71875 48.28125 L 31.21875 29.78125 L 49.1875 11.8125 C 50.289063 10.8125 50.289063 9.011719 49.1875 7.8125 C 48.085938 6.710938 46.292969 6.710938 45.09375 7.8125 L 27.21875 25.78125 L 22.96875 21.53125 C 22.980469 21.289063 23 21.066406 23 20.8125 C 23 17.8125 21.699219 15.605469 20.5 13.40625 C 18.601563 10.105469 16.914063 7.007813 19.3125 1.40625 C 19.414063 1.007813 19.300781 0.613281 19 0.3125 C 18.699219 0.0117188 18.304688 -0.105469 17.90625 0.09375 C 17.816406 0.09375 12.90625 2.265625 8.25 6.8125 L 1.71875 0.28125 C 1.511719 0.0585938 1.210938 -0.0546875 0.90625 -0.03125 Z M 16.59375 3 C 15.195313 8.101563 17.085938 11.414063 18.6875 14.3125 C 19.660156 16.015625 20.566406 17.574219 20.875 19.4375 L 9.6875 8.25 C 12.210938 5.769531 14.800781 4.023438 16.59375 3 Z M 47.09375 9.0625 C 47.320313 9.0625 47.539063 9.164063 47.6875 9.3125 C 47.988281 9.613281 47.988281 10.199219 47.6875 10.5 L 29.8125 28.375 L 28.625 27.1875 L 46.5 9.3125 C 46.648438 9.164063 46.867188 9.0625 47.09375 9.0625 Z M 5.6875 9.6875 C 2.488281 13.6875 0 19.105469 0 25.90625 C 0 33.304688 3.507813 40.011719 9.90625 44.8125 C 10.105469 44.914063 10.300781 45 10.5 45 C 11.101563 45 11.5 44.601563 11.5 44 C 11.5 43.699219 11.386719 43.386719 11.1875 43.1875 C 10.1875 41.886719 6.304688 35.199219 7.90625 29.5 C 8.707031 31 9.894531 31.90625 11.09375 31.90625 C 11.894531 31.90625 12.585938 31.511719 13.1875 30.8125 C 14.085938 29.613281 14.394531 27.59375 14.09375 25.09375 C 15.492188 28.09375 15.6875 31.3125 15.6875 31.3125 C 15.6875 31.710938 15.914063 31.988281 16.3125 32.1875 C 16.613281 32.386719 17.011719 32.292969 17.3125 32.09375 C 17.511719 31.992188 20.398438 29.90625 22 25.90625 L 20.40625 24.40625 C 19.707031 26.707031 18.5 28.304688 17.5 29.40625 C 17.101563 27.007813 15.914063 22.792969 12.8125 20.09375 C 12.511719 19.792969 11.992188 19.800781 11.59375 20 C 11.195313 20.199219 11.085938 20.695313 11.1875 21.09375 C 12.6875 25.894531 12.386719 28.695313 11.6875 29.59375 C 11.585938 29.792969 11.386719 29.90625 11.1875 29.90625 C 10.6875 29.90625 9.601563 28.886719 9 26.6875 C 8.898438 26.289063 8.585938 26 8.1875 26 C 7.789063 25.898438 7.386719 26.101563 7.1875 26.5 C 4.585938 30.699219 5.507813 35.585938 6.90625 39.1875 C 3.707031 35.386719 2 30.804688 2 25.90625 C 2 19.707031 4.195313 14.792969 7.09375 11.09375 Z M 24.46875 28.5 L 18.34375 34.59375 C 16.796875 34.5625 15.125 35.25 13.875 36.5 C 11.738281 38.636719 11.257813 41.914063 13.1875 43.84375 C 15.117188 45.773438 18.394531 45.292969 20.53125 43.15625 C 21.824219 41.863281 22.511719 40.144531 22.4375 38.5625 L 28.46875 32.53125 L 27.0625 31.125 L 21.78125 36.40625 C 21.632813 36.183594 21.445313 35.976563 21.25 35.78125 C 21.03125 35.5625 20.78125 35.40625 20.53125 35.25 L 25.875 29.90625 Z M 18.40625 36.59375 C 18.988281 36.628906 19.484375 36.828125 19.84375 37.1875 C 20.804688 38.148438 20.660156 40.183594 19.125 41.71875 C 17.589844 43.253906 15.585938 43.398438 14.625 42.4375 C 13.664063 41.476563 13.777344 39.441406 15.3125 37.90625 C 16.273438 36.945313 17.433594 36.53125 18.40625 36.59375 Z "></path>
</g>
</svg>
