<?xml version="1.0" encoding="UTF-8" standalone="no"?>
<!DOCTYPE svg PUBLIC "-//W3C//DTD SVG 1.1//EN" "http://www.w3.org/Graphics/SVG/1.1/DTD/svg11.dtd">
<svg width="100%" height="100%" viewBox="0 0 46 42" version="1.1" xmlns="http://www.w3.org/2000/svg" xmlns:xlink="http://www.w3.org/1999/xlink" xml:space="preserve" xmlns:serif="http://www.serif.com/" style="fill-rule:evenodd;clip-rule:evenodd;stroke-linejoin:round;stroke-miterlimit:1.41421;">
    <g transform="matrix(1,0,0,1,-2,-4)">
        <path id="surface1" d="M6,4C5.449,4 5,4.449 5,5L5,8L3,8C2.449,8 2,8.449 2,9L2,14C2,14.551 2.449,15 3,15L5.016,15L5,46L45,46L45,15L47,15C47.551,15 48,14.551 48,14L48,9C48,8.449 47.551,8 47,8L45,8L45,5C45,4.449 44.551,4 44,4L6,4ZM7,6L43,6L43,8L7,8L7,6ZM4,10L5.832,10C5.941,10.02 6.051,10.02 6.156,10L43.832,10C43.941,10.02 44.051,10.02 44.156,10L46,10L46,13L27.828,13C27.402,11.801 26.27,11 25,11C23.73,11 22.598,11.805 22.176,13L4,13L4,10ZM7.016,15L11.578,15L11.285,15.297C11.285,15.297 9.605,16.992 7.016,17L7.016,15ZM12.473,15L22.172,15C22.207,15.09 22.242,15.18 22.285,15.27L22.215,15.375C22.191,15.402 19.867,18 17.5,18C15.121,18 12.773,15.363 12.773,15.363L12.473,15ZM27.824,15L37.527,15L37.227,15.363C37.227,15.363 34.879,18 32.5,18C30.133,18 27.809,15.402 27.785,15.375L27.715,15.27C27.754,15.18 27.793,15.09 27.824,15ZM38.422,15L43,15L43,17C40.402,17 38.715,15.297 38.715,15.297L38.422,15ZM23.711,16.703C24.113,16.898 24.555,17 25,17C25.445,17 25.887,16.898 26.289,16.707C26.457,16.922 28.93,20 32.5,20C35.473,20 37.32,18.145 38.09,17.293C38.895,17.945 40.418,19 43,19L43,44L39,44L39,35C39,27.305 32.695,21 25,21C17.305,21 11,27.305 11,35L11,44L7,44L7.016,19C9.586,18.996 11.105,17.945 11.91,17.293C12.68,18.145 14.527,20 17.5,20C21.07,20 23.547,16.918 23.711,16.703ZM25,23C31.605,23 37,28.395 37,35L37,44L13,44L13,35C13,28.395 18.395,23 25,23ZM26.422,26.816L24.438,28.172C22.074,29.785 21.543,31.859 21.531,33.332C21.527,34.055 21.59,34.645 21.578,34.969C21.512,34.895 21.469,34.867 21.398,34.75C21.137,34.316 20.957,33.762 20.957,33.762L20.469,32.16L19.293,33.344C19.293,33.344 18.723,33.914 18.168,34.746C17.613,35.578 17,36.707 17,38.031C17,40.711 19.574,41.906 19.574,41.906L19.777,42L30.23,42L30.438,41.898C30.438,41.898 32.98,40.719 33,38.098C33.016,36.188 32.258,34.938 31.691,34.109C31.129,33.277 30.852,32.996 30.984,32.195L31.426,29.559L29.363,31.262C28.234,32.191 27.789,33.309 27.563,34.191C27.352,33.902 27.145,33.66 26.934,33.281C26.246,32.043 25.746,30.461 25.984,29.184L26.422,26.816ZM24.137,31.332C24.355,32.398 24.719,33.41 25.188,34.25C25.598,34.992 26.047,35.617 26.453,36.086C26.66,36.32 26.852,36.516 27.055,36.68C27.258,36.844 27.367,37.074 28,37.074C28.418,37.074 28.867,36.738 29.016,36.484C29.168,36.234 29.203,36.059 29.238,35.891C29.313,35.555 29.34,35.246 29.418,34.902C29.449,34.746 29.527,34.582 29.578,34.422C29.734,34.699 29.887,35.004 30.039,35.23C30.574,36.02 31.012,36.656 31,38.086C30.992,39.227 29.918,39.871 29.699,40L20.297,40C20.082,39.883 19,39.27 19,38.031C19,37.402 19.383,36.574 19.809,35.922C20.012,36.234 20.23,36.563 20.621,36.82C21.063,37.117 21.809,37.258 22.414,36.984C22.801,36.805 23.141,36.48 23.324,36.125C23.504,35.773 23.555,35.426 23.574,35.113C23.609,34.488 23.527,33.922 23.531,33.348C23.535,32.676 23.719,32.012 24.137,31.332Z" style="fill-rule:nonzero;"/>
    </g>
</svg>
