<?xml version="1.0" encoding="UTF-8"?>
<svg width="46px" height="47px" viewBox="0 0 46 47" xmlns="http://www.w3.org/2000/svg" xmlns:xlink="http://www.w3.org/1999/xlink" version="1.1">
 <defs>
  <path id="shape-path" title="Path" d="M 23.0078125 0.0001220703125 C 22.90185546875 -0.0008544921875 22.7978515625 0.0150146484375 22.69677734375 0.0472412109375 L 0.69677734375 7.0472412109375 C 0.282958984375 7.1781005859375 0.0 7.5660400390625 0.0 8.0001220703125 L 0.0 45.0001220703125 C 0.0 45.5491943359375 0.450927734375 46.0 1.0 46.0 L 7.0 46.0 C 7.548828125 46.0 8.0 45.5491943359375 8.0 45.0001220703125 L 8.0 16.0001220703125 L 38.0 16.0001220703125 L 38.0 45.0001220703125 C 38.0 45.5491943359375 38.450927734375 46.0 39.0 46.0 L 45.0 46.0 C 45.548828125 46.0 46.0 45.5491943359375 46.0 45.0001220703125 L 46.0 8.0001220703125 C 46.0 7.5660400390625 45.716796875 7.1781005859375 45.302978515625 7.0472412109375 L 23.302978515625 0.0472412109375 C 23.206787109375 0.0172119140625 23.10791015625 0.0010986328125 23.0078125 0.0001220703125 Z M 23.0 2.0491943359375 L 44.0 8.7301025390625 L 44.0 44.0001220703125 L 40.0 44.0001220703125 L 40.0 15.0001220703125 C 40.0 14.4510498046875 39.548828125 14.0001220703125 39.0 14.0001220703125 L 7.0 14.0001220703125 C 6.450927734375 14.0001220703125 6.0 14.4510498046875 6.0 15.0001220703125 L 6.0 44.0001220703125 L 2.0 44.0001220703125 L 2.0 8.7301025390625 Z"/>
 </defs>
 <use id="path" xlink:href="#shape-path" fill="#000000" fill-opacity="1.0" stroke="none"/>
</svg>
