<?xml version="1.0" encoding="UTF-8" standalone="no"?>
<!DOCTYPE svg PUBLIC "-//W3C//DTD SVG 1.1//EN" "http://www.w3.org/Graphics/SVG/1.1/DTD/svg11.dtd">
<svg width="100%" height="100%" viewBox="0 0 45 45" version="1.1" xmlns="http://www.w3.org/2000/svg" xmlns:xlink="http://www.w3.org/1999/xlink" xml:space="preserve" xmlns:serif="http://www.serif.com/" style="fill-rule:evenodd;clip-rule:evenodd;stroke-linejoin:round;stroke-miterlimit:1.41421;">
    <g transform="matrix(1.02188,0,0,1.02188,-3.06565,-2.03738)">
        <path d="M24.984,1.994C24.776,1.995 24.573,2.06 24.404,2.182L3.535,13.113C3.206,13.286 3,13.628 3,14L3,45C3,45.549 3.451,46 4,46L10.832,46C10.94,46.018 11.05,46.018 11.158,46L38.832,46C38.865,46.006 38.898,46.009 38.932,46.012C38.965,46.014 38.998,46.015 39.031,46.014C39.074,46.012 39.116,46.007 39.158,46L46,46C46.549,46 47,45.549 47,45L47,14C47,13.628 46.794,13.286 46.465,13.113L25.598,2.182C25.42,2.054 25.205,1.988 24.986,1.994C24.986,1.994 24.985,1.994 24.984,1.994ZM25,4.131L45,14.605L45,44L40,44L40,19C40,18.451 39.549,18 39,18L11,18C10.451,18 10,18.451 10,19L10,44L5,44L5,14.605L25,4.131ZM12,20L38,20L38,44L12,44L12,20ZM22,40C21.995,40 21.991,40 21.986,40C21.437,40 20.986,40.451 20.986,41C20.986,41.549 21.437,42 21.986,42L28.014,42C28.563,42 29.014,41.549 29.014,41C29.014,40.451 28.563,40 28.014,40C28.009,40 28.005,40 28,40L22,40Z" style="fill-rule:nonzero;"/>
    </g>
</svg>
