<svg xmlns="http://www.w3.org/2000/svg" xmlns:xlink="http://www.w3.org/1999/xlink" viewBox="0 0 50 50" version="1.1">
<g id="surface1">
<path style=" " d="M 21.5 0 C 9.65625 0 0 9.65625 0 21.5 C 0 33.34375 9.65625 43 21.5 43 C 24.53125 43 27.488281 42.40625 30.125 41.25 C 30.882813 46.1875 34.988281 50 40 50 C 45.558594 50 50 45.304688 50 39.59375 C 50 36.011719 47.628906 31.617188 45.34375 27.9375 C 44.441406 26.480469 43.574219 25.234375 42.8125 24.15625 C 42.902344 23.332031 43 22.4375 43 21.5 C 43 9.65625 33.34375 0 21.5 0 Z M 21.5 2 C 32.257813 2 41 10.742188 41 21.5 C 41 21.550781 41 21.605469 41 21.65625 C 40.976563 21.625 40.78125 21.375 40.78125 21.375 L 40 20.375 L 39.21875 21.375 C 39.21875 21.375 39.027344 21.652344 39 21.6875 C 39 21.625 39 21.5625 39 21.5 C 39 11.859375 31.140625 4 21.5 4 C 11.859375 4 4 11.859375 4 21.5 C 4 31.140625 11.859375 39 21.5 39 C 24.769531 39 27.871094 38.074219 30.5 36.5 C 30.25 37.382813 30.082031 38.238281 30.03125 39.0625 C 27.496094 40.3125 24.539063 41 21.5 41 C 10.742188 41 2 32.257813 2 21.5 C 2 10.742188 10.742188 2 21.5 2 Z M 21.5 6 C 30.058594 6 37 12.941406 37 21.5 C 37 22.65625 36.835938 23.851563 36.5625 25.0625 C 35.960938 25.9375 35.3125 26.878906 34.65625 27.9375 C 33.664063 29.539063 32.667969 31.285156 31.84375 33.03125 C 29.140625 35.464844 25.449219 37 21.5 37 C 12.941406 37 6 30.058594 6 21.5 C 6 12.941406 12.941406 6 21.5 6 Z M 21.5 9 C 14.570313 9 9 14.570313 9 21.5 C 9 25.195313 10.632813 28.476563 13.125 30.75 C 13.539063 31.121094 14.175781 31.085938 14.546875 30.671875 C 14.917969 30.257813 14.882813 29.621094 14.46875 29.25 C 12.359375 27.324219 11 24.605469 11 21.5 C 11 15.632813 15.632813 11 21.5 11 C 24.269531 11 26.761719 12.042969 28.625 13.75 C 26.210938 15.652344 23.472656 17.785156 21.875 19.03125 C 21.75 19.011719 21.628906 19 21.5 19 C 20.121094 19 19 20.121094 19 21.5 C 19 22.878906 20.121094 24 21.5 24 C 22.847656 24 23.949219 22.929688 24 21.59375 C 25.386719 20.195313 27.890625 17.664063 30.09375 15.4375 C 31.285156 17.140625 32 19.226563 32 21.5 C 32 24.605469 30.640625 27.324219 28.53125 29.25 C 28.117188 29.621094 28.082031 30.257813 28.453125 30.671875 C 28.824219 31.085938 29.460938 31.121094 29.875 30.75 C 32.367188 28.476563 34 25.195313 34 21.5 C 34 18.675781 33.0625 16.085938 31.5 14 C 31.640625 13.855469 32.289063 13.210938 32.3125 13.1875 C 32.613281 12.789063 32.707031 12.300781 32.40625 12 C 32.007813 11.5 31.492188 11.511719 31.09375 11.8125 C 31.078125 11.828125 30.335938 12.410156 30.1875 12.53125 C 27.941406 10.355469 24.894531 9 21.5 9 Z M 40 23.75 C 40.179688 23.980469 40.546875 24.449219 40.84375 24.84375 C 40.914063 25.078125 41.070313 25.277344 41.28125 25.40625 C 41.914063 26.277344 42.671875 27.414063 43.65625 29 C 45.871094 32.570313 48 36.976563 48 39.59375 C 48 44.28125 44.441406 48 40 48 C 35.648438 48 32.140625 44.429688 32 39.875 C 32.011719 39.78125 32.011719 39.6875 32 39.59375 C 32 38.1875 32.617188 36.253906 33.53125 34.21875 C 33.542969 34.199219 33.554688 34.175781 33.5625 34.15625 C 33.566406 34.144531 33.589844 34.136719 33.59375 34.125 C 33.695313 33.988281 33.761719 33.824219 33.78125 33.65625 C 34.523438 32.078125 35.425781 30.476563 36.34375 29 C 37.054688 27.851563 37.65625 26.976563 38.1875 26.21875 C 38.300781 26.105469 38.386719 25.964844 38.4375 25.8125 C 39.132813 24.835938 39.679688 24.164063 40 23.75 Z M 37.96875 30.875 C 37.640625 30.925781 37.359375 31.136719 37.21875 31.4375 C 36.964844 31.949219 36.132813 33.359375 35.40625 34.9375 C 34.679688 36.515625 34 38.300781 34 40 C 34 41.734375 34.820313 43.347656 36.03125 44.4375 C 36.285156 44.71875 36.679688 44.835938 37.046875 44.730469 C 37.410156 44.628906 37.6875 44.328125 37.757813 43.953125 C 37.828125 43.578125 37.679688 43.195313 37.375 42.96875 C 36.585938 42.257813 36 41.066406 36 40 C 36 38.898438 36.542969 37.25 37.21875 35.78125 C 37.894531 34.3125 38.65625 33.03125 39 32.34375 C 39.167969 32.023438 39.15625 31.640625 38.960938 31.335938 C 38.765625 31.03125 38.421875 30.855469 38.0625 30.875 C 38.03125 30.875 38 30.875 37.96875 30.875 Z "></path>
</g>
</svg>
