<?xml version="1.0" encoding="UTF-8" standalone="no"?>
<!DOCTYPE svg PUBLIC "-//W3C//DTD SVG 1.1//EN" "http://www.w3.org/Graphics/SVG/1.1/DTD/svg11.dtd">
<svg width="100%" height="100%" viewBox="0 0 50 47" version="1.1" xmlns="http://www.w3.org/2000/svg" xmlns:xlink="http://www.w3.org/1999/xlink" xml:space="preserve" xmlns:serif="http://www.serif.com/" style="fill-rule:evenodd;clip-rule:evenodd;stroke-linejoin:round;stroke-miterlimit:1.41421;">
    <g transform="matrix(1,0,0,1,0,-1.9375)">
        <path id="surface1" d="M24.219,1.938C23.926,1.969 23.664,2.129 23.5,2.375C18.793,8.691 16,16.523 16,25C16,33.473 18.77,41.313 23.469,47.625C23.797,48.074 24.426,48.172 24.875,47.844C25.324,47.516 25.422,46.887 25.094,46.438C20.641,40.457 18,33.035 18,25C18,16.961 20.637,9.547 25.094,3.563C25.336,3.262 25.383,2.852 25.215,2.504C25.047,2.156 24.695,1.938 24.313,1.938C24.281,1.938 24.25,1.938 24.219,1.938ZM0,5L0,45L2,45L2,30.656C4.332,29.832 6,27.613 6,25C6,22.387 4.332,20.168 2,19.344L2,5L0,5ZM30.25,5.656C29.984,5.699 29.75,5.844 29.594,6.063C25.469,11.27 23,17.844 23,25C23,32.156 25.469,38.73 29.594,43.938C29.789,44.273 30.164,44.469 30.551,44.43C30.941,44.395 31.273,44.137 31.402,43.77C31.531,43.402 31.438,42.992 31.156,42.719C27.301,37.852 25,31.695 25,25C25,18.305 27.301,12.148 31.156,7.281C31.418,6.965 31.457,6.52 31.258,6.16C31.055,5.801 30.656,5.602 30.25,5.656ZM36.219,9.5C35.988,9.539 35.777,9.664 35.625,9.844C32.117,13.902 30,19.215 30,25C30,30.785 32.113,36.098 35.625,40.156C35.988,40.578 36.625,40.629 37.047,40.266C37.469,39.902 37.52,39.266 37.156,38.844C33.945,35.133 32,30.293 32,25C32,19.707 33.949,14.867 37.156,11.156C37.426,10.848 37.48,10.406 37.297,10.043C37.109,9.676 36.719,9.461 36.313,9.5C36.281,9.5 36.25,9.5 36.219,9.5ZM42.375,13.375C42.148,13.406 41.938,13.52 41.781,13.688C38.828,16.551 37,20.563 37,25C37,29.434 38.828,33.449 41.781,36.313C42.18,36.699 42.816,36.695 43.203,36.297C43.59,35.898 43.586,35.262 43.188,34.875C40.605,32.371 39,28.883 39,25C39,21.117 40.605,17.629 43.188,15.125C43.508,14.844 43.613,14.387 43.453,13.992C43.289,13.598 42.895,13.352 42.469,13.375C42.438,13.375 42.406,13.375 42.375,13.375ZM48.781,17.469C48.66,17.488 48.543,17.531 48.438,17.594C45.805,19.008 44,21.809 44,25C44,28.195 45.797,30.996 48.438,32.406C48.93,32.664 49.539,32.477 49.797,31.984C50.055,31.492 49.867,30.883 49.375,30.625C47.363,29.551 46,27.449 46,25C46,22.555 47.371,20.449 49.375,19.375C49.816,19.172 50.051,18.684 49.926,18.211C49.805,17.742 49.359,17.426 48.875,17.469C48.844,17.469 48.813,17.469 48.781,17.469Z" style="fill-rule:nonzero;"/>
    </g>
</svg>
