<?xml version="1.0" encoding="UTF-8" standalone="no"?>
<!DOCTYPE svg PUBLIC "-//W3C//DTD SVG 1.1//EN" "http://www.w3.org/Graphics/SVG/1.1/DTD/svg11.dtd">
<svg width="100%" height="100%" viewBox="0 0 30 46" version="1.1" xmlns="http://www.w3.org/2000/svg" xmlns:xlink="http://www.w3.org/1999/xlink" xml:space="preserve" xmlns:serif="http://www.serif.com/" style="fill-rule:evenodd;clip-rule:evenodd;stroke-linejoin:round;stroke-miterlimit:1.41421;">
    <g transform="matrix(1,0,0,1,-10,-3)">
        <path id="surface1" d="M25,3C16.727,3 10,9.727 10,18C10,23.059 11.93,26.066 13.75,28.156C14.66,29.203 15.539,30.047 16.125,30.813C16.711,31.578 17,32.195 17,33L17,43C17,44.645 18.355,46 20,46L21.156,46C21.602,47.719 23.148,49 25,49C26.852,49 28.398,47.719 28.844,46L30,46C31.645,46 33,44.645 33,43L33,33C33,31.871 33.332,31.09 33.906,30.281C34.48,29.473 35.344,28.668 36.25,27.688C38.059,25.723 40,22.965 40,18C40,9.727 33.273,3 25,3ZM25,5C32.191,5 38,10.809 38,18C38,22.469 36.441,24.512 34.75,26.344C33.906,27.262 33.02,28.09 32.281,29.125C31.543,30.16 31,31.438 31,33L31,38L19,38L19,33C19,31.652 18.414,30.539 17.688,29.594C16.961,28.648 16.09,27.805 15.25,26.844C13.57,24.918 12,22.574 12,18C12,10.809 17.809,5 25,5ZM20.906,17.969C20.863,17.977 20.82,17.988 20.781,18C20.406,18.066 20.105,18.34 20,18.703C19.895,19.07 20.004,19.461 20.281,19.719L24,23.438L24,36L26,36L26,23.438L29.719,19.719C30.117,19.32 30.117,18.68 29.719,18.281C29.32,17.883 28.68,17.883 28.281,18.281L25,21.563L21.719,18.281C21.512,18.059 21.211,17.945 20.906,17.969ZM19,40L31,40L31,43C31,43.555 30.555,44 30,44L22.188,44C22.055,43.973 21.914,43.973 21.781,44L20,44C19.445,44 19,43.555 19,43L19,40ZM23.281,46L26.719,46C26.375,46.598 25.746,47 25,47C24.254,47 23.625,46.598 23.281,46Z" style="fill-rule:nonzero;"/>
    </g>
</svg>
