<?xml version="1.0" encoding="UTF-8" standalone="no"?>
<!DOCTYPE svg PUBLIC "-//W3C//DTD SVG 1.1//EN" "http://www.w3.org/Graphics/SVG/1.1/DTD/svg11.dtd">
<svg width="100%" height="100%" viewBox="0 0 40 50" version="1.1" xmlns="http://www.w3.org/2000/svg" xmlns:xlink="http://www.w3.org/1999/xlink" xml:space="preserve" xmlns:serif="http://www.serif.com/" style="fill-rule:evenodd;clip-rule:evenodd;stroke-linejoin:round;stroke-miterlimit:1.41421;">
    <g transform="matrix(1,0,0,1,-5,0)">
        <path id="surface1" d="M25,0C21.699,0 19,2.699 19,6C19,9.301 21.699,12 25,12C28.301,12 31,9.301 31,6C31,2.699 28.301,0 25,0ZM25,2C27.223,2 29,3.777 29,6C29,8.223 27.223,10 25,10C22.777,10 21,8.223 21,6C21,3.777 22.777,2 25,2ZM25.031,13C20.629,13 18.055,14.164 16.625,15.625C15.195,17.086 15,18.719 15,19.406L15,29.188C15,30.723 16.277,32 17.813,32L19,32L19,43.344C19,44.805 20.195,46 21.656,46L28.344,46C29.805,46 31,44.805 31,43.344L31,32L32.188,32C33.723,32 35,30.723 35,29.188L35,19.406C35,18.738 34.824,17.09 33.406,15.625C31.988,14.16 29.434,13 25.031,13ZM25.031,15C29.086,15 31.012,16.043 31.969,17.031C32.926,18.02 33,19.086 33,19.406L33,29.188C33,29.633 32.633,30 32.188,30L31,30L31,22C31.008,21.691 30.871,21.398 30.633,21.203C30.398,21.008 30.082,20.934 29.781,21C29.316,21.105 28.988,21.523 29,22L29,43.344C29,43.719 28.715,44 28.344,44L21.656,44C21.281,44 21,43.719 21,43.344L21,31.156C21.004,31.105 21.004,31.051 21,31C21,30.969 21,30.938 21,30.906L21,22C21.008,21.691 20.871,21.398 20.633,21.203C20.398,21.008 20.082,20.934 19.781,21C19.316,21.105 18.988,21.523 19,22L19,30L17.813,30C17.367,30 17,29.633 17,29.188L17,19.406C17,19.102 17.094,18.023 18.063,17.031C19.031,16.039 20.977,15 25.031,15ZM16.844,36.563C13.527,37.051 10.707,37.836 8.625,38.844C7.582,39.348 6.738,39.887 6.094,40.563C5.449,41.238 5,42.086 5,43C5,44.258 5.805,45.305 6.906,46.125C8.008,46.945 9.461,47.621 11.25,48.188C14.828,49.316 19.668,50 25,50C30.332,50 35.172,49.316 38.75,48.188C40.539,47.621 41.992,46.945 43.094,46.125C44.195,45.305 45,44.258 45,43C45,42.086 44.551,41.238 43.906,40.563C43.262,39.887 42.418,39.348 41.375,38.844C39.293,37.836 36.473,37.051 33.156,36.563C32.605,36.477 32.086,36.855 32,37.406C31.914,37.957 32.293,38.477 32.844,38.563C36.02,39.031 38.707,39.758 40.5,40.625C41.398,41.059 42.066,41.547 42.469,41.969C42.871,42.391 43,42.711 43,43C43,43.398 42.727,43.918 41.906,44.531C41.086,45.145 39.773,45.762 38.125,46.281C34.828,47.324 30.164,48 25,48C19.836,48 15.172,47.324 11.875,46.281C10.227,45.762 8.914,45.145 8.094,44.531C7.273,43.918 7,43.398 7,43C7,42.711 7.129,42.391 7.531,41.969C7.934,41.547 8.602,41.059 9.5,40.625C11.293,39.758 13.98,39.031 17.156,38.563C17.707,38.477 18.086,37.957 18,37.406C17.914,36.855 17.395,36.477 16.844,36.563Z" style="fill-rule:nonzero;"/>
    </g>
</svg>
