<?xml version="1.0" encoding="UTF-8" standalone="no"?>
<!DOCTYPE svg PUBLIC "-//W3C//DTD SVG 1.1//EN" "http://www.w3.org/Graphics/SVG/1.1/DTD/svg11.dtd">
<svg width="100%" height="100%" viewBox="0 0 38 47" version="1.1" xmlns="http://www.w3.org/2000/svg" xmlns:xlink="http://www.w3.org/1999/xlink" xml:space="preserve" xmlns:serif="http://www.serif.com/" style="fill-rule:evenodd;clip-rule:evenodd;stroke-linejoin:round;stroke-miterlimit:1.41421;">
    <g transform="matrix(1,0,0,1,-6,-3)">
        <path id="surface1" d="M25,3C18.363,3 13,8.363 13,15L13,20L9,20C7.355,20 6,21.355 6,23L6,47C6,48.645 7.355,50 9,50L41,50C42.645,50 44,48.645 44,47L44,23C44,21.355 42.645,20 41,20L37,20L37,15C37,8.363 31.637,3 25,3ZM25,5C30.566,5 35,9.434 35,15L35,20L15,20L15,15C15,9.434 19.434,5 25,5ZM9,22L41,22C41.555,22 42,22.445 42,23L42,47C42,47.555 41.555,48 41,48L9,48C8.445,48 8,47.555 8,47L8,23C8,22.445 8.445,22 9,22ZM25,30C23.301,30 22,31.301 22,33C22,33.898 22.398,34.688 23,35.188L23,38C23,39.102 23.898,40 25,40C26.102,40 27,39.102 27,38L27,35.188C27.602,34.688 28,33.898 28,33C28,31.301 26.699,30 25,30Z" style="fill-rule:nonzero;"/>
    </g>
</svg>
