<?xml version="1.0" encoding="UTF-8" standalone="no"?>
<!DOCTYPE svg PUBLIC "-//W3C//DTD SVG 1.1//EN" "http://www.w3.org/Graphics/SVG/1.1/DTD/svg11.dtd">
<svg width="100%" height="100%" viewBox="0 0 47 47" version="1.1" xmlns="http://www.w3.org/2000/svg" xmlns:xlink="http://www.w3.org/1999/xlink" xml:space="preserve" xmlns:serif="http://www.serif.com/" style="fill-rule:evenodd;clip-rule:evenodd;stroke-linejoin:round;stroke-miterlimit:1.41421;">
    <g transform="matrix(1,0,0,1,-1.98633,-1.28125)">
        <path id="surface1" d="M31,1.281L30.188,2.406C30.188,2.406 28.906,4.172 27.625,6.438C26.344,8.703 25,11.41 25,13.781C25,17.184 27.676,20 31,20C34.324,20 37,17.184 37,13.781C37,11.41 35.656,8.703 34.375,6.438C33.094,4.172 31.813,2.406 31.813,2.406L31,1.281ZM31,4.875C31.453,5.535 31.813,6 32.625,7.438C33.844,9.594 35,12.27 35,13.781C35,16.148 33.195,18 31,18C28.805,18 27,16.148 27,13.781C27,12.27 28.156,9.594 29.375,7.438C30.188,6 30.547,5.535 31,4.875ZM19.5,11.906C19.457,11.914 19.414,11.926 19.375,11.938C19.152,11.984 18.957,12.105 18.813,12.281C18.801,12.293 18.793,12.301 18.781,12.313C17.426,13.547 15.305,14 14,14C12.75,14 10.766,13.559 9.406,12.438C9.195,12.094 8.805,11.91 8.406,11.969C8.375,11.977 8.344,11.988 8.313,12C8.18,12.027 8.051,12.078 7.938,12.156C7.918,12.164 7.895,12.176 7.875,12.188C7.875,12.199 7.875,12.207 7.875,12.219C7.855,12.227 7.832,12.238 7.813,12.25C7.813,12.262 7.813,12.27 7.813,12.281C7.766,12.32 7.727,12.359 7.688,12.406C6.332,13.574 4.273,14 3,14C2.641,13.996 2.305,14.184 2.121,14.496C1.941,14.809 1.941,15.191 2.121,15.504C2.305,15.816 2.641,16.004 3,16C4.543,16 6.703,15.57 8.5,14.25C10.297,15.57 12.457,16 14,16C15.539,16 17.707,15.594 19.5,14.281C20.824,15.234 22.426,15.727 23.813,15.906C23.629,15.246 23.504,14.563 23.5,13.844C22.5,13.645 21.414,13.246 20.531,12.563C20.375,12.133 19.953,11.863 19.5,11.906ZM41.344,12C41.141,12.035 40.957,12.137 40.813,12.281L40.75,12.344C40.094,12.93 39.309,13.328 38.5,13.594C38.504,13.656 38.5,13.719 38.5,13.781C38.5,14.457 38.41,15.094 38.25,15.719C39.355,15.461 40.496,14.977 41.5,14.25C43.297,15.57 45.457,16 47,16C47.359,16.004 47.695,15.816 47.879,15.504C48.059,15.191 48.059,14.809 47.879,14.496C47.695,14.184 47.359,13.996 47,14C45.699,14 43.574,13.547 42.219,12.313C42.207,12.301 42.199,12.293 42.188,12.281C42.105,12.203 42.012,12.141 41.906,12.094C41.887,12.086 41.863,12.07 41.844,12.063C41.684,12 41.512,11.977 41.344,12ZM19.563,22.906C19.5,22.91 19.438,22.922 19.375,22.938C19.273,22.965 19.18,23.008 19.094,23.063C19.074,23.07 19.051,23.082 19.031,23.094C18.895,23.168 18.777,23.277 18.688,23.406C17.332,24.574 15.273,25 14,25C12.738,25 10.703,24.582 9.344,23.438C9.297,23.379 9.246,23.328 9.188,23.281C9.18,23.262 9.168,23.238 9.156,23.219C9.09,23.168 9.016,23.125 8.938,23.094C8.926,23.082 8.918,23.074 8.906,23.063C8.887,23.063 8.863,23.063 8.844,23.063C8.832,23.051 8.824,23.043 8.813,23.031C8.793,23.031 8.77,23.031 8.75,23.031C8.738,23.02 8.73,23.012 8.719,23L8.625,23C8.52,22.984 8.418,22.984 8.313,23C8.18,23.027 8.051,23.078 7.938,23.156C7.918,23.164 7.895,23.176 7.875,23.188C7.875,23.199 7.875,23.207 7.875,23.219C7.855,23.227 7.832,23.238 7.813,23.25C7.813,23.262 7.813,23.27 7.813,23.281C7.766,23.32 7.727,23.359 7.688,23.406C6.332,24.574 4.273,25 3,25C2.641,24.996 2.305,25.184 2.121,25.496C1.941,25.809 1.941,26.191 2.121,26.504C2.305,26.816 2.641,27.004 3,27C4.543,27 6.703,26.57 8.5,25.25C10.297,26.57 12.457,27 14,27C15.543,27 17.703,26.57 19.5,25.25C21.297,26.57 23.457,27 25,27C26.543,27 28.703,26.57 30.5,25.25C32.297,26.57 34.457,27 36,27C37.543,27 39.703,26.57 41.5,25.25C43.297,26.57 45.457,27 47,27C47.359,27.004 47.695,26.816 47.879,26.504C48.059,26.191 48.059,25.809 47.879,25.496C47.695,25.184 47.359,24.996 47,25C45.789,25 43.852,24.613 42.5,23.563C42.328,23.109 41.852,22.844 41.375,22.938C41.25,22.969 41.137,23.02 41.031,23.094C40.895,23.168 40.777,23.277 40.688,23.406C39.332,24.574 37.273,25 36,25C34.789,25 32.852,24.613 31.5,23.563C31.391,23.297 31.176,23.094 30.91,22.996C30.641,22.902 30.344,22.926 30.094,23.063C30.082,23.074 30.074,23.082 30.063,23.094C30.051,23.094 30.043,23.094 30.031,23.094C29.938,23.152 29.852,23.227 29.781,23.313C29.77,23.324 29.762,23.332 29.75,23.344C29.727,23.363 29.707,23.383 29.688,23.406C28.332,24.574 26.273,25 25,25C23.789,25 21.852,24.613 20.5,23.563C20.5,23.551 20.5,23.543 20.5,23.531C20.348,23.148 19.973,22.902 19.563,22.906ZM19,29.281L18.188,30.406C18.188,30.406 16.906,32.172 15.625,34.438C14.344,36.703 13,39.41 13,41.781C13,45.184 15.676,48 19,48C22.324,48 25,45.184 25,41.781C25,39.41 23.656,36.703 22.375,34.438C21.094,32.172 19.813,30.406 19.813,30.406L19,29.281ZM19,32.875C19.453,33.535 19.813,34 20.625,35.438C21.844,37.594 23,40.27 23,41.781C23,44.148 21.195,46 19,46C16.805,46 15,44.148 15,41.781C15,40.27 16.156,37.594 17.375,35.438C18.188,34 18.547,33.535 19,32.875ZM41.563,33.906C41.5,33.91 41.438,33.922 41.375,33.938C41.273,33.965 41.18,34.008 41.094,34.063C41.074,34.07 41.051,34.082 41.031,34.094C40.895,34.168 40.777,34.277 40.688,34.406C39.332,35.574 37.273,36 36,36C34.699,36 32.574,35.547 31.219,34.313C31.207,34.301 31.199,34.293 31.188,34.281C31.141,34.234 31.086,34.191 31.031,34.156C30.992,34.133 30.949,34.113 30.906,34.094C30.887,34.086 30.863,34.07 30.844,34.063C30.754,34.027 30.66,34.008 30.563,34C30.531,34 30.5,34 30.469,34C30.426,33.996 30.387,33.996 30.344,34C30.313,34.008 30.281,34.02 30.25,34.031C30.219,34.039 30.188,34.051 30.156,34.063C30.027,34.109 29.91,34.184 29.813,34.281C29.801,34.293 29.793,34.301 29.781,34.313C29.746,34.34 29.715,34.371 29.688,34.406C28.313,35.594 26.32,36 25,36C24.961,36 24.914,36 24.875,36C25.18,36.652 25.449,37.305 25.688,37.969C27.188,37.852 29.039,37.367 30.531,36.281C32.32,37.582 34.465,38 36,38C37.543,38 39.703,37.57 41.5,36.25C43.297,37.57 45.457,38 47,38C47.359,38.004 47.695,37.816 47.879,37.504C48.059,37.191 48.059,36.809 47.879,36.496C47.695,36.184 47.359,35.996 47,36C45.789,36 43.852,35.613 42.5,34.563C42.5,34.551 42.5,34.543 42.5,34.531C42.348,34.148 41.973,33.902 41.563,33.906ZM8.406,33.969C8.375,33.977 8.344,33.988 8.313,34C8.121,34.043 7.949,34.141 7.813,34.281C7.801,34.293 7.793,34.301 7.781,34.313C6.426,35.547 4.305,36 3,36C2.641,35.996 2.305,36.184 2.121,36.496C1.941,36.809 1.941,37.191 2.121,37.504C2.305,37.816 2.641,38.004 3,38C4.539,38 6.707,37.594 8.5,36.281C9.68,37.133 11.074,37.621 12.344,37.844C12.582,37.203 12.859,36.563 13.156,35.938C11.953,35.797 10.504,35.348 9.406,34.438C9.195,34.094 8.805,33.91 8.406,33.969Z" style="fill-rule:nonzero;"/>
    </g>
</svg>
