<?xml version="1.0" encoding="UTF-8" standalone="no"?><!DOCTYPE svg PUBLIC "-//W3C//DTD SVG 1.1//EN" "http://www.w3.org/Graphics/SVG/1.1/DTD/svg11.dtd"><svg width="100%" height="100%" viewBox="0 0 50 50" version="1.1" xmlns="http://www.w3.org/2000/svg" xmlns:xlink="http://www.w3.org/1999/xlink" xml:space="preserve" xmlns:serif="http://www.serif.com/" style="fill-rule:evenodd;clip-rule:evenodd;stroke-linejoin:round;stroke-miterlimit:1.41421;"><path id="surface1" d="M10,2c-3.301,0 -6,2.699 -6,6c0,3.301 2.699,6 6,6c-3.973,0.004 -6.426,0.699 -7.938,1.656c-1.515,0.961 -2.062,2.168 -2.062,3.094l0,11.25c0,1.645 1.355,3 3,3l1,0l0,12c0,1.645 1.355,3 3,3l6,0c1.645,0 3,-1.355 3,-3l0,-12l1,0c1.645,0 3,-1.355 3,-3l0,-11.25c0,-0.906 -0.523,-2.133 -2.031,-3.094c-1.508,-0.961 -3.946,-1.656 -7.938,-1.656c3.289,-0.016 5.969,-2.707 5.969,-6c0,-3.301 -2.699,-6 -6,-6Zm0,2c2.223,0 4,1.777 4,4c0,2.223 -1.777,4 -4,4c-2.223,0 -4,-1.777 -4,-4c0,-2.223 1.777,-4 4,-4Zm0.031,12c3.754,0 5.801,0.676 6.844,1.344c1.043,0.668 1.125,1.347 1.125,1.406l0,11.25c0,0.563 -0.438,1 -1,1l-3,0l0,14c0,0.563 -0.438,1 -1,1l-6,0c-0.563,0 -1,-0.438 -1,-1l0,-14l-3,0c-0.563,0 -1,-0.438 -1,-1l0,-11.25c0,-0.035 0.098,-0.734 1.156,-1.406c1.059,-0.672 3.121,-1.344 6.875,-1.344Zm31.781,1c-1.519,0 -2.812,1.227 -2.812,2.75l0,10.5c0,1.523 1.293,2.75 2.812,2.75l5.375,0c1.52,0 2.813,-1.227 2.813,-2.75l0,-10.5c0,-1.523 -1.293,-2.75 -2.813,-2.75l-5.375,0Zm0,2l5.375,0c0.469,0 0.813,0.34 0.813,0.75l0,10.5c0,0.41 -0.344,0.75 -0.813,0.75l-5.375,0c-0.468,0 -0.812,-0.34 -0.812,-0.75l0,-10.5c0,-0.41 0.344,-0.75 0.812,-0.75Zm2.688,8.063c-0.746,-0.001 -1.344,0.589 -1.344,1.312c0,0.723 0.598,1.312 1.344,1.312c0.746,0 1.344,-0.589 1.344,-1.312c0,-0.723 -0.598,-1.313 -1.344,-1.313Z" style="fill-rule:nonzero;"/></svg>