<svg xmlns="http://www.w3.org/2000/svg" xmlns:xlink="http://www.w3.org/1999/xlink" viewBox="0 0 50 50" version="1.1">
<g id="surface1">
<path style=" " d="M 16.9375 0 C 16.574219 0.0664063 16.273438 0.328125 16.164063 0.683594 C 16.050781 1.039063 16.144531 1.425781 16.40625 1.6875 C 18.003906 3.3125 19 5.542969 19 8 C 19 9.210938 18.746094 10.347656 18.3125 11.40625 L 17.96875 12.25 L 18.78125 12.6875 C 19.0625 12.835938 19.316406 12.96875 19.5625 13.125 C 21.753906 14.523438 23 16.660156 23 18.75 L 23 30 C 23 32.394531 21.585938 34.441406 19.5625 35.40625 L 19 35.6875 L 19 45 C 19 46.277344 18.589844 47.460938 17.90625 48.4375 C 17.59375 48.894531 17.714844 49.515625 18.171875 49.828125 C 18.628906 50.140625 19.25 50.019531 19.5625 49.5625 C 20.46875 48.269531 21 46.699219 21 45 L 21 36.84375 C 23.371094 35.453125 25 32.933594 25 30 L 25 18.75 C 25 15.878906 23.332031 13.148438 20.65625 11.4375 C 20.550781 11.371094 20.449219 11.3125 20.34375 11.25 C 20.671875 10.207031 21 9.148438 21 8 C 21 5.007813 19.792969 2.296875 17.84375 0.3125 C 17.613281 0.0625 17.273438 -0.0585938 16.9375 0 Z M 23.0625 0 C 22.746094 0.0585938 22.480469 0.269531 22.34375 0.558594 C 22.207031 0.847656 22.21875 1.1875 22.375 1.46875 C 23.410156 3.421875 24 5.640625 24 8 C 24 8.539063 23.96875 9.085938 23.90625 9.625 L 23.84375 10.125 L 24.21875 10.46875 C 26.632813 12.726563 28 15.683594 28 18.75 L 28 30 C 28 33.253906 26.59375 36.171875 24.34375 38.1875 L 24 38.5 L 24 45 C 24 46.28125 23.753906 47.503906 23.34375 48.65625 C 23.152344 49.183594 23.425781 49.761719 23.953125 49.953125 C 24.480469 50.144531 25.058594 49.871094 25.25 49.34375 C 25.730469 47.992188 26 46.523438 26 45 L 26 39.3125 C 28.441406 36.949219 30 33.65625 30 30 L 30 18.75 C 30 15.25 28.457031 11.925781 25.90625 9.375 C 25.949219 8.921875 26 8.472656 26 8 C 26 5.304688 25.308594 2.761719 24.125 0.53125 C 23.925781 0.140625 23.496094 -0.0742188 23.0625 0 Z M 10 2 C 6.699219 2 4 4.699219 4 8 C 4 11.300781 6.699219 14 10 14 C 6.027344 14.003906 3.574219 14.699219 2.0625 15.65625 C 0.546875 16.617188 0 17.824219 0 18.75 L 0 30 C 0 31.644531 1.355469 33 3 33 L 4 33 L 4 45 C 4 46.644531 5.355469 48 7 48 L 13 48 C 14.644531 48 16 46.644531 16 45 L 16 33 L 17 33 C 18.644531 33 20 31.644531 20 30 L 20 18.75 C 20 17.84375 19.476563 16.617188 17.96875 15.65625 C 16.460938 14.695313 14.023438 14 10.03125 14 C 13.320313 13.984375 16 11.292969 16 8 C 16 4.699219 13.300781 2 10 2 Z M 10 4 C 12.222656 4 14 5.777344 14 8 C 14 10.222656 12.222656 12 10 12 C 7.777344 12 6 10.222656 6 8 C 6 5.777344 7.777344 4 10 4 Z M 10.03125 16 C 13.785156 16 15.832031 16.675781 16.875 17.34375 C 17.917969 18.011719 18 18.691406 18 18.75 L 18 30 C 18 30.5625 17.5625 31 17 31 L 14 31 L 14 45 C 14 45.5625 13.5625 46 13 46 L 7 46 C 6.4375 46 6 45.5625 6 45 L 6 31 L 3 31 C 2.4375 31 2 30.5625 2 30 L 2 18.75 C 2 18.714844 2.097656 18.015625 3.15625 17.34375 C 4.214844 16.671875 6.277344 16 10.03125 16 Z M 41.8125 17 C 40.292969 17 39 18.226563 39 19.75 L 39 30.25 C 39 31.773438 40.292969 33 41.8125 33 L 47.1875 33 C 48.707031 33 50 31.773438 50 30.25 L 50 19.75 C 50 18.226563 48.707031 17 47.1875 17 Z M 41.8125 19 L 47.1875 19 C 47.65625 19 48 19.339844 48 19.75 L 48 30.25 C 48 30.660156 47.65625 31 47.1875 31 L 41.8125 31 C 41.34375 31 41 30.660156 41 30.25 L 41 19.75 C 41 19.339844 41.34375 19 41.8125 19 Z M 44.5 27.0625 C 43.753906 27.0625 43.15625 27.652344 43.15625 28.375 C 43.15625 29.097656 43.753906 29.6875 44.5 29.6875 C 45.246094 29.6875 45.84375 29.097656 45.84375 28.375 C 45.84375 27.652344 45.246094 27.0625 44.5 27.0625 Z "></path>
</g>
</svg>
