<?xml version="1.0" encoding="UTF-8" standalone="no"?>
<!DOCTYPE svg PUBLIC "-//W3C//DTD SVG 1.1//EN" "http://www.w3.org/Graphics/SVG/1.1/DTD/svg11.dtd">
<svg width="100%" height="100%" viewBox="0 0 50 47" version="1.1" xmlns="http://www.w3.org/2000/svg" xmlns:xlink="http://www.w3.org/1999/xlink" xml:space="preserve" xmlns:serif="http://www.serif.com/" style="fill-rule:evenodd;clip-rule:evenodd;stroke-linejoin:round;stroke-miterlimit:1.41421;">
    <g transform="matrix(1,0,0,1,0,-1.9566)">
        <path id="surface1" d="M41.563,1.969C41.211,2.02 40.914,2.25 40.777,2.578C40.645,2.906 40.691,3.281 40.906,3.563C45.359,9.543 48,16.965 48,25C48,33.039 45.363,40.453 40.906,46.438C40.645,46.719 40.566,47.125 40.703,47.48C40.844,47.84 41.172,48.09 41.559,48.117C41.941,48.148 42.305,47.957 42.5,47.625C47.207,41.309 50,33.477 50,25C50,16.527 47.23,8.688 42.531,2.375C42.313,2.066 41.938,1.91 41.563,1.969ZM0,4L0,6L1.656,6C2.906,6 4,7.113 4,8.625L4,19L2,19L2,31L4,31L4,41.375C4,42.891 2.906,44 1.656,44L0,44L0,46L1.656,46C4.086,46 6,43.879 6,41.375L6,30.656C8.332,29.832 10,27.613 10,25C10,22.387 8.332,20.168 6,19.344L6,8.625C6,6.121 4.086,4 1.656,4L0,4ZM35.438,5.656C35.086,5.719 34.797,5.965 34.672,6.297C34.551,6.633 34.617,7.008 34.844,7.281C38.699,12.148 41,18.305 41,25C41,31.695 38.699,37.852 34.844,42.719C34.563,42.992 34.469,43.402 34.598,43.77C34.727,44.137 35.059,44.395 35.449,44.43C35.836,44.469 36.211,44.273 36.406,43.938C40.531,38.73 43,32.156 43,25C43,17.844 40.531,11.27 36.406,6.063C36.203,5.785 35.875,5.633 35.531,5.656C35.5,5.656 35.469,5.656 35.438,5.656ZM29.469,9.5C29.102,9.547 28.789,9.793 28.656,10.141C28.523,10.488 28.598,10.879 28.844,11.156C32.055,14.867 34,19.707 34,25C34,30.293 32.051,35.133 28.844,38.844C28.48,39.266 28.531,39.902 28.953,40.266C29.375,40.629 30.012,40.578 30.375,40.156C33.883,36.098 36,30.785 36,25C36,19.215 33.887,13.902 30.375,9.844C30.152,9.582 29.809,9.449 29.469,9.5ZM23.313,13.375C22.926,13.434 22.605,13.711 22.5,14.09C22.391,14.465 22.516,14.871 22.813,15.125C25.395,17.629 27,21.117 27,25C27,28.883 25.395,32.371 22.813,34.875C22.414,35.262 22.41,35.898 22.797,36.297C23.184,36.695 23.82,36.699 24.219,36.313C27.172,33.449 29,29.438 29,25C29,20.566 27.172,16.551 24.219,13.688C24.031,13.488 23.773,13.379 23.5,13.375C23.438,13.367 23.375,13.367 23.313,13.375ZM16.875,17.469C16.434,17.535 16.09,17.887 16.031,18.328C15.973,18.77 16.215,19.195 16.625,19.375C18.637,20.449 20,22.551 20,25C20,27.445 18.629,29.551 16.625,30.625C16.133,30.883 15.945,31.492 16.203,31.984C16.461,32.477 17.07,32.664 17.563,32.406C20.195,30.992 22,28.191 22,25C22,21.805 20.203,19.004 17.563,17.594C17.383,17.492 17.176,17.449 16.969,17.469C16.938,17.469 16.906,17.469 16.875,17.469Z" style="fill-rule:nonzero;"/>
    </g>
</svg>
