<svg xmlns="http://www.w3.org/2000/svg" xmlns:xlink="http://www.w3.org/1999/xlink" viewBox="0 0 50 50" version="1.1">
<g id="surface1">
<path style=" " d="M 25 2 C 12.308594 2 2 12.308594 2 25 C 2 37.691406 12.308594 48 25 48 C 37.691406 48 48 37.691406 48 25 C 48 12.308594 37.691406 2 25 2 Z M 25 4 C 36.609375 4 46 13.390625 46 25 C 46 36.609375 36.609375 46 25 46 C 13.390625 46 4 36.609375 4 25 C 4 13.390625 13.390625 4 25 4 Z M 16 15 L 16 35 L 23 35 L 23 15 Z M 27 15 L 27 35 L 34 35 L 34 15 Z M 18 17 L 21 17 L 21 33 L 18 33 Z M 29 17 L 32 17 L 32 33 L 29 33 Z "></path>
</g>
</svg>
