<?xml version="1.0" encoding="UTF-8" standalone="no"?>
<!DOCTYPE svg PUBLIC "-//W3C//DTD SVG 1.1//EN" "http://www.w3.org/Graphics/SVG/1.1/DTD/svg11.dtd">
<svg width="100%" height="100%" viewBox="0 0 42 45" version="1.1" xmlns="http://www.w3.org/2000/svg" xmlns:xlink="http://www.w3.org/1999/xlink" xml:space="preserve" xmlns:serif="http://www.serif.com/" style="fill-rule:evenodd;clip-rule:evenodd;stroke-linejoin:round;stroke-miterlimit:1.41421;">
    <g transform="matrix(1,0,0,1,-4,-4)">
        <path d="M9,4C6.25,4 4,6.25 4,9L4,44C4,44.549 4.451,45 5,45L20.586,45L24.293,48.707C24.681,49.095 25.319,49.095 25.707,48.707L29.414,45L45,45C45.549,45 46,44.549 46,44L46,9C46,6.25 43.75,4 41,4L9,4ZM9,6L41,6C42.668,6 44,7.332 44,9L44,43L29,43C28.735,43 28.48,43.106 28.293,43.293L25,46.586L21.707,43.293C21.52,43.106 21.265,43 21,43L6,43L6,9C6,7.332 7.332,6 9,6ZM25.949,11C22.899,11 20.615,12.226 19.41,14.066C18.328,15.72 18.26,17.784 18.906,19.717C18.618,20.134 18.412,20.648 18.494,21.344C18.587,22.135 18.8,22.732 19.146,23.182C19.286,23.362 19.493,23.365 19.668,23.482C19.791,24.103 19.951,24.724 20.203,25.236C20.361,25.558 20.531,25.846 20.715,26.098C20.761,26.161 20.85,26.21 20.896,26.27C20.901,26.914 20.906,27.486 20.857,28.15C20.704,28.514 20.386,28.831 19.752,29.176C19.087,29.537 18.176,29.878 17.229,30.324C16.281,30.771 15.283,31.333 14.475,32.23C13.666,33.128 13.095,34.369 13.002,35.941C13.001,35.961 13,35.98 13,36C13,36.548 13.451,37 14,37L36,37C36.549,37 37,36.548 37,36C37,35.98 36.999,35.961 36.998,35.941C36.904,34.355 36.292,33.101 35.436,32.207C34.579,31.313 33.525,30.759 32.523,30.314C31.522,29.87 30.555,29.53 29.848,29.166C29.171,28.818 28.837,28.494 28.689,28.148C28.641,27.483 28.648,26.911 28.652,26.266C28.698,26.205 28.788,26.156 28.834,26.092C29.015,25.838 29.178,25.548 29.332,25.227C29.577,24.715 29.732,24.098 29.852,23.482C30.026,23.365 30.233,23.363 30.371,23.184C30.717,22.734 30.928,22.135 31.021,21.344C31.081,20.839 31.029,20.375 30.855,19.969C30.818,19.881 30.687,19.846 30.637,19.762C30.8,19.339 31.025,18.952 31.074,18.451C31.154,17.636 31.103,16.728 30.869,15.834C30.636,14.94 30.216,14.05 29.5,13.354C28.931,12.801 28.126,12.472 27.23,12.33L26.846,11.555C26.677,11.215 26.329,11 25.949,11ZM25.387,13.113L25.65,13.645C25.819,13.984 26.168,14.2 26.547,14.199C27.285,14.199 27.73,14.422 28.105,14.787C28.481,15.152 28.768,15.706 28.934,16.34C29.099,16.973 29.141,17.675 29.084,18.256C29.027,18.836 28.826,19.302 28.777,19.365C28.643,19.54 28.571,19.754 28.571,19.974C28.571,20.31 28.74,20.624 29.02,20.809C29.032,20.852 29.057,20.928 29.035,21.109C28.971,21.653 28.838,21.89 28.789,21.955C28.364,22.042 28.042,22.397 27.996,22.828C27.947,23.289 27.753,23.895 27.529,24.363C27.417,24.597 27.297,24.801 27.205,24.93C27.113,25.058 27.002,25.103 27.174,25.012C26.848,25.185 26.644,25.526 26.645,25.895C26.645,26.762 26.609,27.494 26.701,28.533C26.709,28.621 26.729,28.707 26.76,28.789C27.149,29.852 28.037,30.485 28.934,30.945C29.83,31.406 30.81,31.742 31.713,32.143C32.615,32.543 33.423,32.999 33.99,33.592C34.351,33.968 34.594,34.443 34.77,35L15.221,35C15.39,34.43 15.622,33.945 15.961,33.568C16.492,32.979 17.238,32.531 18.082,32.133C18.926,31.735 19.853,31.397 20.707,30.934C21.561,30.47 22.409,29.828 22.789,28.787C22.819,28.705 22.838,28.62 22.846,28.533C22.938,27.494 22.904,26.762 22.904,25.895C22.904,25.525 22.699,25.185 22.373,25.012C22.54,25.101 22.427,25.05 22.332,24.92C22.237,24.79 22.113,24.587 21.998,24.354C21.768,23.886 21.569,23.281 21.521,22.828C21.475,22.397 21.153,22.042 20.729,21.955C20.68,21.891 20.545,21.654 20.48,21.109C20.459,20.926 20.504,20.825 20.531,20.785C20.913,20.51 21.051,20.001 20.861,19.57C20.173,18.012 20.279,16.391 21.084,15.16C21.816,14.042 23.248,13.263 25.387,13.113Z" style="fill-rule:nonzero;"/>
    </g>
</svg>
