<?xml version="1.0" encoding="UTF-8" standalone="no"?>
<!DOCTYPE svg PUBLIC "-//W3C//DTD SVG 1.1//EN" "http://www.w3.org/Graphics/SVG/1.1/DTD/svg11.dtd">
<svg width="100%" height="100%" viewBox="0 0 50 38" version="1.1" xmlns="http://www.w3.org/2000/svg" xmlns:xlink="http://www.w3.org/1999/xlink" xml:space="preserve" xmlns:serif="http://www.serif.com/" style="fill-rule:evenodd;clip-rule:evenodd;stroke-linejoin:round;stroke-miterlimit:1.41421;">
    <g transform="matrix(1,0,0,1,0,-3.8125)">
        <path id="surface1" d="M9.281,3.813L8.031,8.75L4.219,24L0,24L0,26L5.781,26L5.969,25.25L8.719,14.219L12,37.156L12.688,41.781L13.969,37.281L18.875,20.063L20.031,25.219L20.188,26L27.188,26C27.605,27.156 28.707,28 30,28C31.645,28 33,26.645 33,25C33,23.355 31.645,22 30,22C28.707,22 27.605,22.844 27.188,24L21.781,24L19.969,15.781L19.125,11.938L18.031,15.719L13.344,32.156L10,8.844L9.281,3.813ZM40.406,8.438L39.406,10.156C44.598,13.082 48,18.66 48,25C48,31.332 44.508,36.918 39.313,39.844L40.281,41.563C46.086,38.289 50,32.066 50,25C50,17.941 46.215,11.711 40.406,8.438ZM36.406,15.438L35.406,17.156C38.098,18.68 40,21.68 40,25C40,28.34 38.188,31.289 35.406,32.813L36.375,34.563C39.793,32.688 42,29.059 42,25C42,20.922 39.715,17.313 36.406,15.438ZM30,24C30.555,24 31,24.445 31,25C31,25.555 30.555,26 30,26C29.445,26 29,25.555 29,25C29,24.445 29.445,24 30,24Z" style="fill-rule:nonzero;"/>
    </g>
</svg>
