<svg xmlns="http://www.w3.org/2000/svg" xmlns:xlink="http://www.w3.org/1999/xlink" viewBox="0 0 50 50" version="1.1">
<g id="surface1">
<path style=" " d="M 24.90625 1.96875 C 24.863281 1.976563 24.820313 1.988281 24.78125 2 C 24.648438 2.027344 24.519531 2.078125 24.40625 2.15625 L 2.65625 10.0625 C 2.261719 10.207031 2 10.582031 2 11 L 2 37.75 C 1.925781 38.019531 1.96875 38.308594 2.117188 38.546875 C 2.265625 38.785156 2.503906 38.949219 2.78125 39 L 2.8125 39 C 2.84375 39.011719 2.875 39.023438 2.90625 39.03125 L 24.6875 47.90625 C 24.9375 48.011719 25.21875 48.011719 25.46875 47.90625 L 47.375 38.9375 C 47.40625 38.929688 47.4375 38.917969 47.46875 38.90625 C 47.5625 38.855469 47.644531 38.792969 47.71875 38.71875 C 47.730469 38.71875 47.738281 38.71875 47.75 38.71875 C 48.023438 38.453125 48.121094 38.050781 48 37.6875 L 48 11 C 48 10.582031 47.738281 10.207031 47.34375 10.0625 L 25.5625 2.15625 C 25.542969 2.144531 25.519531 2.132813 25.5 2.125 L 25.46875 2.09375 C 25.429688 2.082031 25.386719 2.070313 25.34375 2.0625 C 25.324219 2.050781 25.300781 2.039063 25.28125 2.03125 C 25.269531 2.03125 25.261719 2.03125 25.25 2.03125 C 25.230469 2.019531 25.207031 2.007813 25.1875 2 C 25.097656 1.976563 25 1.964844 24.90625 1.96875 Z M 24 4.4375 L 24 29.3125 L 4 36.5625 L 4 11.6875 Z M 26 4.4375 L 46 11.6875 L 46 36.5625 L 41 34.75 L 41 17.3125 C 41 16.894531 40.738281 16.519531 40.34375 16.375 L 31.34375 13.0625 C 31.183594 13 31.011719 12.976563 30.84375 13 C 30.351563 13.078125 29.992188 13.503906 30 14 L 30 30.75 L 26 29.3125 Z M 18.875 13 C 18.789063 13.011719 18.707031 13.03125 18.625 13.0625 L 9.625 16.65625 C 9.242188 16.808594 8.996094 17.183594 9 17.59375 L 9 27.59375 C 8.996094 27.929688 9.160156 28.242188 9.4375 28.429688 C 9.714844 28.617188 10.066406 28.65625 10.375 28.53125 L 19.375 25 C 19.757813 24.847656 20.003906 24.472656 20 24.0625 L 20 14 C 20.003906 13.710938 19.878906 13.4375 19.664063 13.246094 C 19.449219 13.054688 19.160156 12.964844 18.875 13 Z M 32 15.4375 L 39 18 L 39 34.03125 L 32 31.5 Z M 18 15.46875 L 18 23.375 L 11 26.15625 L 11 18.25 Z M 25 31.0625 L 44.21875 38.03125 L 25.0625 45.875 L 5.8125 38.03125 Z "></path>
</g>
</svg>
