<?xml version="1.0" encoding="UTF-8" standalone="no"?>
<!DOCTYPE svg PUBLIC "-//W3C//DTD SVG 1.1//EN" "http://www.w3.org/Graphics/SVG/1.1/DTD/svg11.dtd">
<svg width="100%" height="100%" viewBox="0 0 42 42" version="1.1" xmlns="http://www.w3.org/2000/svg" xmlns:xlink="http://www.w3.org/1999/xlink" xml:space="preserve" xmlns:serif="http://www.serif.com/" style="fill-rule:evenodd;clip-rule:evenodd;stroke-linejoin:round;stroke-miterlimit:1.41421;">
    <g transform="matrix(1,0,0,1,-4,-4)">
        <path d="M9,4C6.25,4 4,6.25 4,9L4,41C4,43.75 6.25,46 9,46L41,46C43.75,46 46,43.75 46,41L46,9C46,6.25 43.75,4 41,4L9,4ZM9,6L41,6C42.668,6 44,7.332 44,9L44,41C44,42.668 42.668,44 41,44L9,44C7.332,44 6,42.668 6,41L6,9C6,7.332 7.332,6 9,6ZM25,8C15.631,8 8,15.631 8,25C8,34.369 15.631,42 25,42C34.369,42 42,34.369 42,25C42,15.631 34.369,8 25,8ZM25,9C33.827,9 41,16.173 41,25C41,33.827 33.827,41 25,41C16.173,41 9,33.827 9,25C9,16.173 16.173,9 25,9ZM25,11C17.289,11 11,17.289 11,25C11,32.711 17.289,39 25,39C32.711,39 39,32.711 39,25C39,17.289 32.711,11 25,11ZM25,13C31.627,13 37,18.373 37,25C37,31.627 31.627,37 25,37C18.373,37 13,31.627 13,25C13,18.373 18.373,13 25,13ZM25,15.5C19.775,15.5 15.5,19.775 15.5,25C15.5,30.225 19.775,34.5 25,34.5C30.225,34.5 34.5,30.225 34.5,25C34.5,19.775 30.225,15.5 25,15.5ZM25,18.5C28.597,18.5 31.5,21.403 31.5,25C31.5,28.597 28.597,31.5 25,31.5C21.403,31.5 18.5,28.597 18.5,25C18.5,21.403 21.403,18.5 25,18.5ZM25,22C23.346,22 22,23.346 22,25C22,26.654 23.346,28 25,28C26.654,28 28,26.654 28,25C28,23.346 26.654,22 25,22Z" style="fill-rule:nonzero;"/>
    </g>
</svg>
