<?xml version="1.0" encoding="UTF-8" standalone="no"?>
<!DOCTYPE svg PUBLIC "-//W3C//DTD SVG 1.1//EN" "http://www.w3.org/Graphics/SVG/1.1/DTD/svg11.dtd">
<svg width="100%" height="100%" viewBox="0 0 46 47" version="1.1" xmlns="http://www.w3.org/2000/svg" xmlns:xlink="http://www.w3.org/1999/xlink" xml:space="preserve" xmlns:serif="http://www.serif.com/" style="fill-rule:evenodd;clip-rule:evenodd;stroke-linejoin:round;stroke-miterlimit:1.41421;">
    <g transform="matrix(1,0,0,1,-2.00195,-2)">
        <path d="M22.205,2C21.718,2 21.298,2.357 21.219,2.838L20.246,8.793C19.077,9.133 17.961,9.592 16.91,10.164L11.996,6.654C11.6,6.372 11.053,6.417 10.709,6.76L6.818,10.646C6.477,10.989 6.429,11.532 6.707,11.928L10.164,16.873C9.583,17.93 9.114,19.052 8.766,20.232L2.836,21.219C2.356,21.3 2.002,21.719 2.002,22.205L2.002,27.705C2.001,28.188 2.351,28.606 2.826,28.691L8.76,29.742C9.106,30.921 9.573,32.043 10.154,33.102L6.654,37.998C6.372,38.394 6.417,38.941 6.76,39.285L10.648,43.176C10.99,43.517 11.532,43.565 11.928,43.289L16.883,39.82C17.937,40.395 19.055,40.858 20.229,41.201L21.219,47.164C21.299,47.644 21.718,48 22.205,48L27.705,48C28.189,48.001 28.607,47.65 28.691,47.174L29.752,41.188C30.921,40.839 32.033,40.37 33.082,39.791L38.07,43.291C38.466,43.569 39.01,43.521 39.352,43.18L43.24,39.287C43.585,38.942 43.629,38.392 43.344,37.996L39.787,33.059C40.356,32.015 40.814,30.909 41.154,29.748L47.172,28.693C47.648,28.609 47.999,28.191 47.998,27.707L47.998,22.207C47.998,21.72 47.641,21.3 47.16,21.221L41.152,20.238C40.81,19.079 40.35,17.975 39.781,16.932L43.289,11.934C43.567,11.538 43.52,10.994 43.178,10.652L39.287,6.764C38.942,6.419 38.392,6.375 37.996,6.66L33.072,10.201C32.023,9.625 30.91,9.158 29.738,8.813L28.691,2.828C28.608,2.351 28.189,1.999 27.705,2L22.205,2ZM23.057,4L26.865,4L27.861,9.686C27.929,10.074 28.221,10.388 28.604,10.484C30.066,10.849 31.44,11.427 32.693,12.186C33.035,12.393 33.47,12.376 33.795,12.143L38.475,8.779L41.168,11.473L37.836,16.221C37.609,16.544 37.594,16.972 37.797,17.311C38.548,18.561 39.118,19.926 39.482,21.381C39.579,21.767 39.898,22.061 40.291,22.125L45.998,23.059L45.998,26.867L40.279,27.871C39.89,27.94 39.577,28.233 39.482,28.617C39.123,30.07 38.552,31.435 37.801,32.686C37.595,33.027 37.613,33.461 37.846,33.785L41.225,38.475L38.531,41.17L33.791,37.844C33.466,37.616 33.036,37.603 32.697,37.809C31.45,38.568 30.075,39.148 28.617,39.518C28.236,39.614 27.946,39.926 27.877,40.313L26.867,46L23.053,46L22.111,40.338C22.046,39.945 21.752,39.627 21.365,39.531C19.902,39.171 18.522,38.594 17.26,37.836C16.922,37.634 16.494,37.649 16.172,37.875L11.469,41.17L8.773,38.471L12.098,33.824C12.329,33.499 12.346,33.066 12.139,32.725C11.373,31.459 10.793,30.079 10.428,28.609C10.332,28.228 10.02,27.936 9.633,27.867L4.002,26.867L4.002,23.053L9.629,22.117C10.021,22.052 10.339,21.759 10.436,21.373C10.804,19.898 11.383,18.519 12.146,17.256C12.352,16.918 12.338,16.488 12.111,16.164L8.826,11.469L11.523,8.773L16.186,12.105C16.509,12.336 16.941,12.353 17.281,12.148C18.537,11.394 19.92,10.822 21.385,10.463C21.773,10.367 22.069,10.047 22.133,9.652L23.057,4ZM25,17C20.594,17 17,20.594 17,25C17,29.406 20.594,33 25,33C29.406,33 33,29.406 33,25C33,20.594 29.406,17 25,17ZM25,19C28.326,19 31,21.674 31,25C31,28.326 28.326,31 25,31C21.674,31 19,28.326 19,25C19,21.674 21.674,19 25,19Z" style="fill-rule:nonzero;"/>
    </g>
</svg>
