<?xml version="1.0" encoding="UTF-8" standalone="no"?>
<!DOCTYPE svg PUBLIC "-//W3C//DTD SVG 1.1//EN" "http://www.w3.org/Graphics/SVG/1.1/DTD/svg11.dtd">
<svg width="100%" height="100%" viewBox="0 0 24 50" version="1.1" xmlns="http://www.w3.org/2000/svg" xmlns:xlink="http://www.w3.org/1999/xlink" xml:space="preserve" xmlns:serif="http://www.serif.com/" style="fill-rule:evenodd;clip-rule:evenodd;stroke-linejoin:round;stroke-miterlimit:1.41421;">
    <g transform="matrix(1,0,0,1,-13,0)">
        <path id="surface1" d="M25,0C23.469,0 22.012,0.332 20.875,1.156C19.738,1.98 19,3.348 19,5L19,9.688C18.941,9.883 18.941,10.086 19,10.281L19,27.688C15.43,29.766 13,33.578 13,38C13,44.617 18.383,50 25,50C31.617,50 37,44.617 37,38C37,33.578 34.57,29.766 31,27.688L31,27L34,27C34.359,27.004 34.695,26.816 34.879,26.504C35.059,26.191 35.059,25.809 34.879,25.496C34.695,25.184 34.359,24.996 34,25L31,25L31,23L34,23C34.359,23.004 34.695,22.816 34.879,22.504C35.059,22.191 35.059,21.809 34.879,21.496C34.695,21.184 34.359,20.996 34,21L31,21L31,19L34,19C34.359,19.004 34.695,18.816 34.879,18.504C35.059,18.191 35.059,17.809 34.879,17.496C34.695,17.184 34.359,16.996 34,17L31,17L31,15L34,15C34.359,15.004 34.695,14.816 34.879,14.504C35.059,14.191 35.059,13.809 34.879,13.496C34.695,13.184 34.359,12.996 34,13L31,13L31,11L34,11C34.359,11.004 34.695,10.816 34.879,10.504C35.059,10.191 35.059,9.809 34.879,9.496C34.695,9.184 34.359,8.996 34,9L31,9L31,5C31,3.348 30.262,1.98 29.125,1.156C27.988,0.332 26.531,0 25,0ZM25,2C26.23,2 27.266,2.297 27.938,2.781C28.609,3.266 29,3.891 29,5L29,9L21,9L21,5C21,3.891 21.391,3.266 22.063,2.781C22.734,2.297 23.77,2 25,2ZM21,11L29,11L29,13.688C28.941,13.883 28.941,14.086 29,14.281L29,17.531C28.867,17.809 28.867,18.129 29,18.406L29,21.531C28.867,21.809 28.867,22.129 29,22.406L29,25.531C28.867,25.809 28.867,26.129 29,26.406L29,28.219C29.004,28.586 29.207,28.922 29.531,29.094C32.766,30.75 35,34.109 35,38C35,43.535 30.535,48 25,48C19.465,48 15,43.535 15,38C15,34.109 17.234,30.75 20.469,29.094C20.793,28.922 20.996,28.586 21,28.219L21,11Z" style="fill-rule:nonzero;"/>
    </g>
</svg>
