<svg xmlns="http://www.w3.org/2000/svg" viewBox="0 0 50 50">
    <path style="line-height:normal;text-indent:0;text-align:start;text-decoration-line:none;text-decoration-style:solid;text-decoration-color:#000;text-transform:none;block-progression:tb;isolation:auto;mix-blend-mode:normal" d="M 24.964844 1 A 1.0001 1.0001 0 0 0 24.382812 1.2128906 L 4.421875 16.835938 L 1.3828125 19.212891 A 1.0002305 1.0002305 0 1 0 2.6171875 20.787109 L 4 19.705078 L 4 46 A 1.0001 1.0001 0 0 0 5 47 L 45 47 A 1.0001 1.0001 0 0 0 46 46 L 46 19.705078 L 47.382812 20.787109 A 1.0002308 1.0002308 0 1 0 48.617188 19.212891 L 45.632812 16.878906 L 25.617188 1.2128906 A 1.0001 1.0001 0 0 0 24.964844 1 z M 25 3.2695312 L 44 18.138672 L 44 45 L 6 45 L 6 18.138672 L 25 3.2695312 z M 21 16 A 1.0001 1.0001 0 0 0 20 17 C 20 17 20.005813 22.91597 20.007812 26.472656 C 20.008671 27.467705 20.007796 27.98844 20.007812 28.232422 C 18.808737 29.487946 18 31.133168 18 33 C 18 36.854334 21.145666 40 25 40 C 28.854334 40 32 36.854334 32 33 C 32 31.136576 31.194851 29.493193 30 28.238281 L 30 24 L 32 24 A 1.0001 1.0001 0 1 0 32 22 L 30 22 L 30 20 L 32 20 A 1.0001 1.0001 0 1 0 32 18 L 30 18 L 30 17 A 1.0001 1.0001 0 0 0 29 16 L 21 16 z M 22 18 L 28 18 L 28 18.832031 A 1.0001 1.0001 0 0 0 28 19.158203 L 28 22.832031 A 1.0001 1.0001 0 0 0 28 23.158203 L 28 28.53125 A 1.0001 1.0001 0 0 0 28.333984 29.277344 C 29.357897 30.192028 30 31.51379 30 33 C 30 35.773666 27.773666 38 25 38 C 22.226334 38 20 35.773666 20 33 C 20 31.510262 20.64394 30.186038 21.671875 29.271484 A 1.0001 1.0001 0 0 0 22.007812 28.523438 C 22.007812 28.434438 22.008813 27.631101 22.007812 26.470703 C 22.006024 23.289002 22.000865 19.034724 22 18 z M 24 21 L 24 30.175781 A 3 3 0 0 0 22 33 A 3 3 0 0 0 25 36 A 3 3 0 0 0 28 33 A 3 3 0 0 0 26 30.173828 L 26 21 L 24 21 z"></path>
</svg>
