<?xml version="1.0" encoding="UTF-8" standalone="no"?>
<!DOCTYPE svg PUBLIC "-//W3C//DTD SVG 1.1//EN" "http://www.w3.org/Graphics/SVG/1.1/DTD/svg11.dtd">
<svg width="100%" height="100%" viewBox="0 0 38 51" version="1.1" xmlns="http://www.w3.org/2000/svg" xmlns:xlink="http://www.w3.org/1999/xlink" xml:space="preserve" xmlns:serif="http://www.serif.com/" style="fill-rule:evenodd;clip-rule:evenodd;stroke-linejoin:round;stroke-miterlimit:1.41421;">
    <g transform="matrix(1,0,0,1,-6,6.65435e-05)">
        <path id="surface1" d="M22.781,0C21.605,-0.004 20.406,0.164 19.219,0.531C12.902,2.492 9.289,9.27 11.25,15.594L11.25,15.656C11.508,16.367 12.199,18.617 12.625,20L9,20C7.355,20 6,21.355 6,23L6,47C6,48.645 7.355,50 9,50L41,50C42.645,50 44,48.645 44,47L44,23C44,21.355 42.645,20 41,20L14.75,20C14.441,19.008 13.512,16.074 13.125,15L13.156,15C11.52,9.723 14.5,4.109 19.781,2.469C25.051,0.832 30.695,3.797 32.344,9.063C32.344,9.066 32.344,9.09 32.344,9.094C32.57,9.887 33.656,13.406 33.656,13.406C33.746,13.766 34.027,14.051 34.387,14.137C34.75,14.227 35.129,14.109 35.375,13.832C35.621,13.551 35.695,13.16 35.563,12.813C35.563,12.813 34.434,9.172 34.25,8.531L34.25,8.5C32.781,3.762 28.602,0.543 23.938,0.063C23.551,0.023 23.172,0 22.781,0ZM9,22L41,22C41.555,22 42,22.445 42,23L42,47C42,47.555 41.555,48 41,48L9,48C8.445,48 8,47.555 8,47L8,23C8,22.445 8.445,22 9,22ZM25,30C23.301,30 22,31.301 22,33C22,33.898 22.398,34.688 23,35.188L23,38C23,39.102 23.898,40 25,40C26.102,40 27,39.102 27,38L27,35.188C27.602,34.688 28,33.898 28,33C28,31.301 26.699,30 25,30Z" style="fill-rule:nonzero;"/>
    </g>
</svg>
